<svg xmlns="http://www.w3.org/2000/svg" viewBox="0 0 500 500"><defs><style>.cls-1{isolation:isolate;}.cls-2{fill:#e1f9f8;}.cls-3{fill:#b9eae5;}.cls-4{fill:#a7eadf;}.cls-5{fill:#b8f2e7;}.cls-6{fill:#5eccb7;}.cls-7{fill:#6fd8c6;}.cls-8{fill:#d6ede8;mix-blend-mode:multiply;}.cls-9{fill:#8ddb95;}.cls-10{fill:#55a560;}.cls-11{fill:#434c77;}.cls-12{fill:#f9e6e1;}.cls-13{fill:#efc8bb;}.cls-14{fill:#565d8b;}.cls-15{fill:#465177;}.cls-16{fill:#6d77aa;}.cls-17{fill:#fff;}.cls-18{fill:#f4ddd7;}.cls-19{fill:#eac3bb;}.cls-20{fill:#53c1ac;}.cls-21{fill:#8de2d2;}.cls-22{fill:#fff2f0;}.cls-23{fill:#80e0ce;}.cls-24{fill:#d64716;}.cls-25{fill:#ef6630;}.cls-26{fill:#fff6f3;}.cls-27{fill:#fffaf8;}.cls-28{fill:#f7ddd2;}.cls-29{fill:#ffc81a;}</style></defs><g class="cls-1"><g id="OBJECTS"><path class="cls-2" d="M257.36712,20.325s-53.146-10.2901-86.3594,29.5839C137.79432,89.78275,137.79432,91.069,102.12066,96.214S39.38422,144.994,57.83612,193.27747s-26.1077,70.1499-20.4346,110.0238c5.6731,39.874,33.0898,49.1825,47.8514,64.6176,14.7615,15.4351,18.918,87.8093,94.3657,82.0157,49.1342-3.7731,71.8492-10.7942,113.90479.078,109.15811,28.2196,154.6886-54.9655,152.2284-98.6982-2.46029-43.7327,6.5448-59.7561,27.457-88.3158,20.9121-28.5596,18.0418-95.1829-27.8829-117.478-41.4705-20.1328-15.4448-41.4028-34.7169-71.0301-22.9623-35.3004-56.1357-24.7823-78.1814-27.2971C302.35791,43.76337,277.39921,21.42927,257.36712,20.325Z"/><path class="cls-3" d="M104.37836,276.4696l10.9149,113.2929,60.9574-7.523,1.2832,8.0479,131.59219-1.5097,2.4438-14.8085s53.6235,2.6162,85.4108-29.6494c-7.6596,1.8196-43.0163.69-43.0163.69l-120.71749.6249Z"/><circle class="cls-4" cx="304.31348" cy="227.02688" r="109.39921" transform="translate(-71.40089 281.67676) rotate(-45)"/><ellipse class="cls-5" cx="304.31348" cy="196.23468" rx="89.78462" ry="78.60702"/><path class="cls-6" d="M391.12345,208.5743a21.87388,21.87388,0,0,0,3.7643-2.34,7.20326,7.20326,0,0,0,2.4318-3.4423,10.74184,10.74184,0,0,0,.1712-5.8344c-.753-3.1188-4.4054-4.185-5.1107-7.2364-.6163-2.6656.62921-5.0859.79421-7.6691.09209-1.4402-.124-2.9049-.05841-4.3444.1001-2.1968,1.7899-3.2862,2.3206-5.3723a9.94076,9.94076,0,0,0-.23219-5.7748,14.839,14.839,0,0,0-.85141-1.6753,109.27028,109.27028,0,0,0-90.0394-47.2577c-2.4503,0-4.8797.089-7.29.2476a2.6,2.6,0,0,0,.9699,2.2584c.97091.8598,2.1021.759,3.20391,1.2966,2.20939,1.078-.42591,3.6358.34569,5.3451.263.583,1.1324.622,1.6885.7936a1.4771,1.4771,0,0,1,.7596.0734q.08535.1728.171.345c.6414.3642.448.2004,1.151.3931,1.6404.4497.4735,2.9182.7993,4.1868.3966,1.5452,2.961,2.0736,4.253,2.0506a13.389,13.389,0,0,1,5.4202.9326,20.62575,20.62575,0,0,0,3.3441,1.0567,5.48373,5.48373,0,0,1,1.5357.3104,7.94038,7.94038,0,0,1,2.0735,2.3411,5.28271,5.28271,0,0,1,.3296,3.5947c-1.7956.321-3.0311.5749-2.8684,2.6956.2134,2.7795,3.7778,3.2457,5.7434,4.5053a22.38687,22.38687,0,0,1,3.2736,2.0011c.5975.56,1.0911,1.0921,1.7398,1.6114a11.0238,11.0238,0,0,1,1.8668,2.4418,7.1824,7.1824,0,0,1,1.0899,2.6,2.653,2.653,0,0,1-.6321,2.5735,11.19522,11.19522,0,0,0-1.4584,1.3037,8.647,8.647,0,0,1-1.65279,1.8516,3.8712,3.8712,0,0,1-2.64311.4715,5.08124,5.08124,0,0,1-2.2835-.5471,5.82544,5.82544,0,0,0-1.30739-.7862c-.99341-.2066-1.63871.0079-1.66571,1.0321-.0457,1.7407.6371,3.8523-1.12129,4.8692-1.74621,1.0095-3.96451.7199-5.899.7852-1.409.0475-1.45141-.2209-2.50261-1.1636a2.92767,2.92767,0,0,0-2.1397-.9246c-1.8995-.0801-3.351-.217-3.9939,1.9105-.4296,1.4217-.0675,3.5465-.0675,5.0501,0,1.193.4283,3.3813-.2196,4.2604-.468.6351-1.4319.6931-2.0808.9284-1.282.4646-2.3588,1.3656-3.6978,1.8153-1.498.5028-2.2967,1.7249-3.5422,2.6434a12.14046,12.14046,0,0,0-3.30349,3.1631,12.96187,12.96187,0,0,0-2.0994,3.8719,37.336,37.336,0,0,0-1.2749,6.7577,9.71265,9.71265,0,0,0,1.8545,6.1105,37.16149,37.16149,0,0,0,3.1601,3.3263,16.006,16.006,0,0,0,1.97139,2.0447,32.68281,32.68281,0,0,0,3.0443,2.0764c1.694.9934,3.0791.8065,4.998.8037a11.52086,11.52086,0,0,0,2.95-.0597c1.1339-.3218,1.7808-1.0704,3.0135-1.1988a4.15629,4.15629,0,0,1,3.2172.6385c1.02091.8614.7873,2.0314,2.2162,2.3166.9705.1937,2.9664.121,3.71171-.4726,1.02609-.8175.94269-1.1887,2.43509-1.4535a16.98622,16.98622,0,0,1,3.1417-.2049c1.8595.0135,2.7887.7606,4.1367,1.9819.5237.4746.9898,1.0187,1.516,1.4859,1.0967.9738,1.2651.7036,2.4092,1.183,1.1015.4618,2.2554,1.113,3.4294,1.592a33.98263,33.98263,0,0,0,6.0528,1.6701c3.117.6444,6.2635.3553,9.443.4141,2.1548.0398,1.12811-.3097,2.45711-1.4671,1.23819-1.0784,5.53559.1562,6.78129.4058a14.2599,14.2599,0,0,1,2.9092.6841,10.106,10.106,0,0,0,1.4279.7064,14.28754,14.28754,0,0,0,3.3423.0644,11.44092,11.44092,0,0,0,2.07131.0621c.62529-.2646.42849-.6422.43469-1.2296a17.3239,17.3239,0,0,1,.5679-4.6413c.4319-1.6591.0148-4.1864,2.1582-4.9212,1.1067-.3793,3.0064-.0406,4.1594-.0411,1.8461-.0011,3.691-.0003,5.53681.0328A11.02281,11.02281,0,0,0,391.12345,208.5743Z"/><path class="cls-7" d="M299.04375,117.7732c-.6762.0343-1.34649.087-2.0187.1344a2.58315,2.58315,0,0,0,.9683,2.226c.97091.8598,2.1021.759,3.20391,1.2966,2.20939,1.078-.42591,3.6358.34569,5.3451.263.583,1.1324.622,1.6885.7936a1.4771,1.4771,0,0,1,.7596.0734q.08535.1728.171.345c.6414.3642.448.2004,1.151.3931,1.6404.4497.4735,2.9182.7993,4.1868.3966,1.5452,2.961,2.0736,4.253,2.0506a13.389,13.389,0,0,1,5.4202.9326,20.62575,20.62575,0,0,0,3.3441,1.0567,5.48373,5.48373,0,0,1,1.5357.3104,7.94038,7.94038,0,0,1,2.0735,2.3411,5.28271,5.28271,0,0,1,.3296,3.5947c-1.7956.321-3.0311.5749-2.8684,2.6956.2134,2.7795,3.7778,3.2457,5.7434,4.5053a22.38687,22.38687,0,0,1,3.2736,2.0011c.5975.56,1.0911,1.0921,1.7398,1.6114a11.0238,11.0238,0,0,1,1.8668,2.4418,7.1824,7.1824,0,0,1,1.0899,2.6,2.653,2.653,0,0,1-.6321,2.5735,11.19522,11.19522,0,0,0-1.4584,1.3037,8.647,8.647,0,0,1-1.65279,1.8516,3.8712,3.8712,0,0,1-2.64311.4715,5.08124,5.08124,0,0,1-2.2835-.5471,5.82544,5.82544,0,0,0-1.30739-.7862c-.99341-.2066-1.63871.0079-1.66571,1.0321-.0457,1.7407.6371,3.8523-1.12129,4.8692-1.74621,1.0095-3.96451.7199-5.899.7852-1.409.0475-1.45141-.2209-2.50261-1.1636a2.92767,2.92767,0,0,0-2.1397-.9246c-1.8995-.0801-3.351-.217-3.9939,1.9105-.4296,1.4217-.0675,3.5465-.0675,5.0501,0,1.193.4283,3.3813-.2196,4.2604-.468.6351-1.4319.6931-2.0808.9284-1.282.4646-2.3588,1.3656-3.6978,1.8153-1.498.5028-2.2967,1.7249-3.5422,2.6434a12.14046,12.14046,0,0,0-3.30349,3.1631,12.96187,12.96187,0,0,0-2.0994,3.8719,37.336,37.336,0,0,0-1.2749,6.7577,9.71265,9.71265,0,0,0,1.8545,6.1105,37.16149,37.16149,0,0,0,3.1601,3.3263,16.006,16.006,0,0,0,1.97139,2.0447,32.68281,32.68281,0,0,0,3.0443,2.0764c1.694.9934,3.0791.8065,4.998.8037a11.52086,11.52086,0,0,0,2.95-.0597c1.1339-.3218,1.7808-1.0704,3.0135-1.1988a4.15629,4.15629,0,0,1,3.2172.6385c1.02091.8614.7873,2.0314,2.2162,2.3166.9705.1937,2.9664.121,3.71171-.4726,1.02609-.8175.94269-1.1887,2.43509-1.4535a16.98622,16.98622,0,0,1,3.1417-.2049c1.8595.0135,2.7887.7606,4.1367,1.9819.5237.4746.9898,1.0187,1.516,1.4859,1.0967.9738,1.2651.7036,2.4092,1.183,1.1015.4618,2.2554,1.113,3.4294,1.592a33.98263,33.98263,0,0,0,6.0528,1.6701c3.117.6444,6.2635.3553,9.443.4141,2.1548.0398,1.12811-.3097,2.45711-1.4671,1.23819-1.0784,5.53559.1562,6.78129.4058a14.2599,14.2599,0,0,1,2.9092.6841,10.106,10.106,0,0,0,1.4279.7064,14.28754,14.28754,0,0,0,3.3423.0644,11.44092,11.44092,0,0,0,2.07131.0621c.62529-.2646.42849-.6422.43469-1.2296a17.3239,17.3239,0,0,1,.5679-4.6413c.4319-1.6591.0148-4.1864,2.1582-4.9212,1.1067-.3793,3.0064-.0406,4.1594-.0411,1.8461-.0011,3.691-.0003,5.53681.0328a11.02281,11.02281,0,0,0,6.24819-1.9098c.7197-.4233,1.39881-.7661,2.0526-1.143a69.53263,69.53263,0,0,0,.9221-11.1966c0-1.2859-.0411-2.5631-.1107-3.8339a5.74161,5.74161,0,0,1-1.6074-2.6796c-.485-2.0979.17821-4.0446.5653-6.0376-6.61309-36.0683-41.24109-63.9335-83.732-65.935-.1668-.0074-.333-.0168-.50009-.0236-1.45821-.0615-2.92421-.0974-4.39981-.0974-1.4261,0-2.8421.0366-4.252.0942C299.72135,117.7353,299.38326,117.7567,299.04375,117.7732Z"/><path class="cls-6" d="M345.86735,302.2167c-1.5138-1.3685-4.713-.7831-6.1887.3214-.8273.6195-1.20039,1.0877-2.2453,1.1902.3685-.0361-1.8856-.0221-1.7202-.025-4.9485.0859,2.3188.533-9.0074-.3047a105.74912,105.74912,0,0,1-17.5011-2.4163q-1.3122-.64815-2.6248-1.2962c-1.152-1.221-1.20559-2.7936-1.6827-4.2979-.55789-1.7597-1.8102-3.2059-2.5335-4.8851a7.22737,7.22737,0,0,1-.3908-3.4003c.0613-1.0024.4413-1.8416.4285-2.8826-.008-.6434-.0009-1.2886,0-1.932.00091-.7995.3006-2.2023-.0199-2.9714-1.4925-3.5811-7.23789-1.176-9.71579-.6672a17.92386,17.92386,0,0,1-7.7154-.4602c-1.5096-.3437-3.6863-.0393-4.4461-1.8301-.4396-1.0359.0245-2.416.2514-3.4102a15.00362,15.00362,0,0,1,1.84-5.1811,8.79838,8.79838,0,0,1,3.8266-3.4238c1.2505-.5673,3.5223-1.7552,1.9305-3.3697-.4523-.4586-1.17-.3758-1.6341-.8575a2.22527,2.22527,0,0,1-.5001-1.9202,3.725,3.725,0,0,1,2.735-3.0265c1.8155-.6771,3.6642-1.2582,5.4769-1.9571,1.4273-.5502,5.27009-.607,5.94629-2.1008a7.62323,7.62323,0,0,0-.0245-2.3446c-.0623-.7587-.3005-1.5084-.4106-2.2632-.4021-2.7573-3.57929-2.7516-5.67709-3.6259a11.07738,11.07738,0,0,1-5.6547-4.6715,18.55329,18.55329,0,0,1-1.0694-2.6832h-29.6307a23.76119,23.76119,0,0,1,.1532,2.8739q.00165,3.61935,0,7.2389c-.0014.9797-.0634,1.9705-.031,2.948a8.55812,8.55812,0,0,0,.7808,2.6052q.063.5706.158,1.1368.1668.13425.334.2683a3.12039,3.12039,0,0,1,.4354,1.5235c.0242.9354.0011,1.8901-.0114,2.827-.0253,1.8846-.8882,2.3329-2.2887,3.4692-1.1087.8995-2.0029.6834-3.1811.1776-1.6521-.7089-3.543-.4142-5.3427-.4142-1.1766-.0001-2.3533.0114-3.5299-.0081-.741-.0124-2.41-.2685-2.9685.3943a9.54905,9.54905,0,0,0-.5132,1.3435,5.44331,5.44331,0,0,0-.4269,2.1016c-.0093.6038.2468,1.452-.0316,1.9997-.2608.5128-1.1622.8671-1.6392,1.1296a4.43291,4.43291,0,0,1-2.4634.4796c-3.7197.0906-.6422,5.0077-2.897,6.1897a3.7993,3.7993,0,0,1-1.4674.042,35.43591,35.43591,0,0,1-4.1366-.0679c-1.6358-.2094-3.3409-.4253-4.551-1.531a24.77771,24.77771,0,0,0-2.6028-1.9108c-.5545-.3902-.8311-.8623-1.3325-1.2743-.3252-.2672-.8948-.3799-1.1633-.6813a10.81531,10.81531,0,0,1-1.2255-2.0735,14.981,14.981,0,0,0-2.1369-3.1697,2.437,2.437,0,0,0-.9667-.7845c-.403-.2405-.7281-.6472-1.1074-.8636-.7429-.4236-2.5944-.0718-3.4419-.0723-1.2247-.0005-2.604.2823-3.636-.3863a15.85379,15.85379,0,0,1-2.8746-2.7381,33.63263,33.63263,0,0,1-3.9828-4.7555,15.72613,15.72613,0,0,0-2.3605-2.9806,109.49,109.49,0,0,0,130.29529,83.3391,5.26978,5.26978,0,0,0-.1298-2.1139c-.3393-.8877-1.7396-1.4263-2.5189-1.8868a15.99176,15.99176,0,0,0-2.4808-1.1392c-1.3219-.5022-4.4473-1.184-4.9178-2.6892q.03256-1.16985.0229-2.3404a5.72279,5.72279,0,0,1-.0133-1.3176,19.7546,19.7546,0,0,1,1.8228-.9113c2.4729-1.1289,4.9167-.8207,7.5682-.8221,2.4615-.0015,5.3833.398,7.6989-.7129,1.4436-.6928,1.8369-2.1027,2.4854-3.4738a28.82116,28.82116,0,0,1,2.4995-4.9346,6.0716,6.0716,0,0,1,2.8669-1.5586c1.0388-.3909,3.1435-.46,3.9965-1.1887C348.13515,307.5476,346.98305,303.2252,345.86735,302.2167Z"/><path class="cls-7" d="M300.35215,248.7678c-.0623-.7587-.3005-1.5084-.4106-2.2632-.4021-2.7573-3.57929-2.7516-5.67709-3.6259a11.07738,11.07738,0,0,1-5.6547-4.6715c-.6894-1.2578-.9078-2.5439-1.5527-3.8349-.7243-1.4499-1.1114-2.7017-2.4104-3.8541-1.5269-1.3546-2.9646-.9364-4.6557-.6254a19.154,19.154,0,0,1-5.1355-.0507c-1.1094-.1282-5.8976,1.3232-6.8136.725l-5.5839-1.5323a2.09677,2.09677,0,0,1-1.6906,1.4274c-1.0085.2841-2.3639.0206-2.9426,1.1148a4.87684,4.87684,0,0,0-.0841,2.7967,21.66765,21.66765,0,0,1,.3222,4.0242q.00165,3.61935,0,7.2389c-.0014.9797-.0634,1.9705-.031,2.948a8.55812,8.55812,0,0,0,.7808,2.6052q.063.5706.158,1.1368.1668.13425.334.2683a3.12039,3.12039,0,0,1,.4354,1.5235c.0242.9354.0011,1.8901-.0114,2.827-.0253,1.8846-.8882,2.3329-2.2887,3.4692-1.1087.8995-2.0029.6834-3.1811.1776a6.33841,6.33841,0,0,0-2.1984-.4541,95.44137,95.44137,0,0,0,28.8816,11.9967,12.96535,12.96535,0,0,1,1.6535-4.367,8.79838,8.79838,0,0,1,3.8266-3.4238c1.2505-.5673,3.5223-1.7552,1.9305-3.3697-.4523-.4586-1.17-.3758-1.6341-.8575a2.22527,2.22527,0,0,1-.5001-1.9202,3.725,3.725,0,0,1,2.735-3.0265c1.8155-.6771,3.6642-1.2582,5.4769-1.9571,1.4273-.5502,5.27009-.607,5.94629-2.1008A7.62323,7.62323,0,0,0,300.35215,248.7678Z"/><path class="cls-7" d="M289.83286,156.5804c1.1979-.3836,1.2044,2.0691,1.0775,2.7209-.6962.1864-1.6881-.0695-1.9315.8518a3.29934,3.29934,0,0,0,.5635,1.8975c.3356.6173.7019.84.8406,1.4904.1847.867.7044,1.9921-.2684,2.5199a5.53257,5.53257,0,0,1-2.5061.1886,8.65866,8.65866,0,0,0-.9706-.0206c-.607.0687-1.0448.5115-1.6611.5963-.3872.0533-.8818-.1048-1.0819.3891a1.699,1.699,0,0,0,.1286.9628,6.20137,6.20137,0,0,1,.2833,2.2307c-.0088,1.0173-.6309,1.3295-1.1033,2.1751a4.72125,4.72125,0,0,0-.519,1.5531,2.49206,2.49206,0,0,1-.088.6359c-.1147.2082-.3702.2383-.4517.3868-.3869.7049.0788,1.7478-.3108,2.5481a6.965,6.965,0,0,1-2.1614,2.6376c-.3353.2462-.6865.4678-1.0162.7115a6.28184,6.28184,0,0,1-2.045.8368,5.73053,5.73053,0,0,0-2.7381,2.0366,5.05392,5.05392,0,0,0-.916,2.4873,12.75162,12.75162,0,0,0-.5279,2.3592,9.30981,9.30981,0,0,0,.0408,1.8531,6.44231,6.44231,0,0,0,1.1176,2.1046c.7375,1.1486,1.2374,2.4098,2.0261,3.5135,1.4134,1.9779-1.3013,2.3546-2.7822,2.33-1.1131-.0187-2.4849.284-3.1761-.7615a7.87842,7.87842,0,0,1-.9079-1.9368c-.2214-.7325-.0875-1.4918-.5039-2.16a6.32365,6.32365,0,0,0-1.3297-1.3445c-.1719-.1601-.2448-.3879-.4315-.5491a2.28226,2.28226,0,0,0-1.5226-.4279c-1.6005-.0756-3.2133-.0109-4.8158-.0088-.9149.001-2.0132.3392-2.685-.3467a8.38072,8.38072,0,0,1-2.1722-4.6325,10.69268,10.69268,0,0,1,.5722-4.2133,7.37441,7.37441,0,0,0-.2702-4.4221,3.01224,3.01224,0,0,0-1.4572-1.8143,6.7143,6.7143,0,0,0-.8776-.3193c-.4532-.178-.8153-.4866-1.2536-.6908a8.54539,8.54539,0,0,1-1.2674-.4656c-.2658-.1742-.4659-.4317-.7383-.6081-.7068-.4577-1.5646-.4743-2.0362-1.248a13.12007,13.12007,0,0,1-1.3303-2.4349,17.10655,17.10655,0,0,1-.4643-4.1648,11.00872,11.00872,0,0,1,1.7877-7.1389,8.34484,8.34484,0,0,1,2.2378-2.4309,27.31542,27.31542,0,0,0,2.9548-1.9069c1.6898-1.3179,2.6933-3.2056,4.2396-4.636a5.82314,5.82314,0,0,1,2.1051-1.0628,25.32136,25.32136,0,0,0,6.1443-3.2713c1.7983-1.2634,2.5057-2.6562,3.4789-4.5967.8439-1.6825,1.7515-3.3415,2.5665-5.0368,1.3998-2.9116,5.0623-2.5712,7.8225-2.5919a5.07048,5.07048,0,0,1,3.946,1.8491,8.2447,8.2447,0,0,1,1.64,4.3371c.1879,1.0708.0118,2.1932.1052,3.2775.089,1.0327-.0065,2.4122.8007,3.1606.9421.8729,2.9846.6458,4.154.6619,1.2527.0172,2.915-.223,3.9781.6689a3.04011,3.04011,0,0,1,.6935,3.3215,17.14248,17.14248,0,0,1-1.6619,2.3502,2.03676,2.03676,0,0,0-.5416,1.5151C292.51016,155.5446,291.94246,156.0048,289.83286,156.5804Z"/><path class="cls-6" d="M406.04495,267.3351a3.65749,3.65749,0,0,1-1.5995.7585,12.39574,12.39574,0,0,0-2.1697.1349c-.9459.3127-1.7187,1.0054-2.6779,1.3038-.5125.1593-.9911.0244-1.4627.1445a13.94133,13.94133,0,0,0-2.4156.9467c-1.8057.9411-2.7948,3.752-4.864,4.096a7.75093,7.75093,0,0,1-3.335-.3857c-.7114-.2155-1.1742-.7331-1.83629-.9394-.21171-.0659-.59151.1017-.79791.0685-.4033-.0647-.7575-.2614-1.1493-.3466-1.25279-.2719-3.7166-.4452-4.8667.0964-1.4026.6601-1.0166,2.264-1.0419,3.5618-.019.9854-.0418,1.0965-.81319,1.6903a4.56272,4.56272,0,0,1-2.05131,1.1042c-.9751.2009-1.9893-.0953-2.9384.1201-.29529.067-.4202.2797-.709.3451a8.62618,8.62618,0,0,1-1.4477.0037c-1.2928.0751-2.413.7861-3.67059,1.0477-1.52661.3177-3.06031.0515-4.58281.3106-1.9343.3289-2.891,1.4576-2.428,3.4876.7555,3.3124,5.6876,1.8822,8.04781,2.2437a5.59436,5.59436,0,0,1,3.97529,4.3791,7.3577,7.3577,0,0,1-.1834,3.0875c-.4265.8915-1.1831,1.3099-1.4075,2.3512a8.63963,8.63963,0,0,0,.7432,5.5088,16.1886,16.1886,0,0,1,1.7201,4.4765c.731.2082,1.4767.3099,2.2152.4667.90611.1922,1.4713.7746,2.35211.8692a8.59887,8.59887,0,0,0,.87929.0426A109.60639,109.60639,0,0,0,406.04495,267.3351Z"/><polygon class="cls-8" points="328.572 237.702 356.437 242.188 314.378 346.12 328.572 237.702"/><path class="cls-9" d="M186.19116,174.9787s-14.3374-2.7495-21.01-7.2716c-6.6725-4.5221-11.5118-14.7467-16.1619-17.4225,8.2022-2.8298,17.0253-.4572,25.2273,6.2014C184.83026,165.078,186.19116,174.9787,186.19116,174.9787Z"/><path class="cls-10" d="M186.19116,174.9787s-.8238-.5027-2.3099-1.51a163.07269,163.07269,0,0,1-13.6785-10.4936c-9.4545-8.0174-16.6228-11.8567-19.4142-12.6216,3.8104.5692,11.5612,5.2158,18.8404,10.9851C176.90836,167.1078,185.32,172.9979,186.19116,174.9787Z"/><path class="cls-10" d="M184.77946,173.6742a91.93892,91.93892,0,0,0-9.3283-11.2661c-4.9172-4.8726-13.4402-9.5892-19.6047-11.3737,3.0942.4182,10.677,2.1303,19.6104,9.9302,8.9334,7.8,10.3196,13.7538,10.3196,13.7538s-8.6242-3.1594-13.242-6.3432c-4.6177-3.1838-15.5317-13.2984-16.5828-14.5028,2.4877,1.6248,10.2313,9.2715,14.1643,11.5532C174.04906,167.7073,183.96246,173.2106,184.77946,173.6742Z"/><path class="cls-10" d="M155.40426,155.0768s3.5981,7.6228,9.5284,11.0738,13.1125,6.8432,17.8341,7.3848c-9.0549-3.7434-13.4487-5.5377-18.3006-8.7885S155.40426,155.0768,155.40426,155.0768Z"/><path class="cls-9" d="M186.32616,176.2058s.0201-14.5987,3.2147-21.9991c3.1946-7.4005,12.3338-14.0664,14.0929-19.1348,4.3136,7.5285,3.6328,16.6395-1.3746,25.9419C195.79766,173.0175,186.32616,176.2058,186.32616,176.2058Z"/><path class="cls-10" d="M186.32616,176.2058s.3397-.9034,1.0514-2.5516a163.05821,163.05821,0,0,1,7.7507-15.3994c6.1081-10.787,8.5393-18.5467,8.7686-21.4318.1534,3.8495-2.9619,12.3324-7.2682,20.5621C192.32226,165.6148,188.10906,174.9796,186.32616,176.2058Z"/><path class="cls-10" d="M187.34366,174.5751a91.95065,91.95065,0,0,0,9.3231-11.2705c3.8671-5.7416,6.9068-14.9963,7.5071-21.3857.1678,3.1178-.0963,10.8871-6.0881,21.1214-5.9919,10.2344-11.5815,12.7093-11.5815,12.7093s1.4909-9.0628,3.7552-14.1945c2.2642-5.1317,10.1595-17.7444,11.1461-19.0022-1.131,2.7477-7.1948,11.7846-8.7007,16.0749C191.19886,162.9181,187.64626,173.6858,187.34366,174.5751Z"/><path class="cls-10" d="M200.12,142.2403s-6.8154,4.9602-9.0966,11.4312c-2.2812,6.4709-4.2706,14.1607-3.9198,18.9004,1.9842-9.5951,2.9253-14.247,5.2114-19.6212C194.60126,147.5765,200.12,142.2403,200.12,142.2403Z"/><path class="cls-9" d="M192.45376,197.8368s.0201-14.5986,3.2147-21.9991c3.1947-7.4005,12.3339-14.0663,14.093-19.1348,4.3136,7.5285,3.6327,16.6395-1.3747,25.942C201.92536,194.6485,192.45376,197.8368,192.45376,197.8368Z"/><path class="cls-10" d="M192.45376,197.8368s.3398-.9034,1.0514-2.5515a163.06425,163.06425,0,0,1,7.7508-15.3995c6.1081-10.787,8.5392-18.5467,8.7686-21.4318.1534,3.8495-2.9619,12.3324-7.2683,20.5622C198.45,187.2458,194.23666,196.6106,192.45376,197.8368Z"/><path class="cls-10" d="M193.47126,196.2061a91.95683,91.95683,0,0,0,9.3232-11.2705c3.8671-5.7416,6.9067-14.9963,7.507-21.3857.1679,3.1178-.0962,10.8871-6.0881,21.1215-5.9918,10.2343-11.5814,12.7092-11.5814,12.7092s1.4909-9.0627,3.7552-14.1945c2.2641-5.1317,10.1595-17.7444,11.146-19.0021-1.1309,2.7476-7.1947,11.7845-8.7007,16.0748S193.774,195.3168,193.47126,196.2061Z"/><path class="cls-10" d="M206.24766,163.8714s-6.8154,4.9601-9.0966,11.4311c-2.2813,6.4709-4.2706,14.1608-3.9198,18.9004,1.9842-9.5951,2.9252-14.247,5.2114-19.6211C200.729,169.2075,206.24766,163.8714,206.24766,163.8714Z"/><path class="cls-10" d="M199.60316,201.3116c-13.4398-10.0395-15.8106-37.3926-15.9049-38.5522l.9794-.0797c.0228.2795,2.4303,28.0713,15.5135,37.8447Z"/><path class="cls-9" d="M184.80486,166.8939s-10.0351-10.6027-12.8124-18.1697c-2.7772-7.5669-.7369-18.6934-2.9501-23.5807,8.3113,2.4912,14.0895,9.5685,16.8612,19.763C189.48016,158.0612,184.80486,166.8939,184.80486,166.8939Z"/><path class="cls-10" d="M185.12956,168.4692s-.7001-2.4644-1.3186-4.1497a163.08615,163.08615,0,0,1-4.979-16.5054c-2.9953-12.0289-6.5737-19.331-8.3933-21.5817,2.7613,2.6867,6.3412,10.9843,8.8829,19.9181C181.86326,155.0842,185.57866,166.3524,185.12956,168.4692Z"/><path class="cls-10" d="M184.42036,165.0107a91.95433,91.95433,0,0,0-.9962-14.5929c-1.1475-6.8267-5.3136-15.6319-9.2766-20.6797,2.268,2.146,7.4248,7.9631,10.124,19.5112,2.6991,11.5481.3485,17.1911.3485,17.1911s-5.1574-7.5999-7.0477-12.8808-4.846-19.8644-4.9963-21.4559c1.0711,2.7715,2.8938,13.5006,4.7549,17.6492C179.19206,153.9016,184.02766,164.1573,184.42036,165.0107Z"/><path class="cls-10" d="M171.42846,132.7619s-1.529,8.2895,1.2709,14.5536c2.7999,6.2639,6.6506,13.2111,10.1678,16.4074-5.1659-8.3256-7.6858-12.3475-9.727-17.8194C171.09886,140.4315,171.42846,132.7619,171.42846,132.7619Z"/><polygon class="cls-11" points="182.15 323.217 183.221 382.239 300.684 379.806 300.684 243.21 183.221 244.399 182.15 323.217"/><path class="cls-12" d="M300.72526,355.9692s-4.468,7.1489-1.91491,19.2765c-27.70209.766-114.58959,2.8724-114.58959,2.8724s7.1003-8.2341-.471-16.8511C194.28916,360.4053,300.72526,355.9692,300.72526,355.9692Z"/><polygon class="cls-13" points="187.491 363.756 201.179 363.319 214.869 362.959 242.25 362.361 269.635 361.936 283.328 361.786 297.023 361.714 283.335 362.153 269.646 362.513 242.264 363.11 214.88 363.533 201.186 363.683 187.491 363.756"/><polygon class="cls-13" points="187.491 365.799 201.179 365.361 214.869 365.001 242.25 364.403 269.635 363.979 283.328 363.828 297.023 363.756 283.335 364.195 269.646 364.555 242.264 365.152 214.88 365.575 201.186 365.726 187.491 365.799"/><polygon class="cls-13" points="187.491 367.841 201.179 367.404 214.869 367.044 242.25 366.446 269.635 366.021 283.328 365.871 297.023 365.799 283.335 366.238 269.646 366.598 242.264 367.195 214.88 367.618 201.186 367.768 187.491 367.841"/><polygon class="cls-13" points="187.491 369.884 201.179 369.446 214.869 369.086 242.25 368.488 269.635 368.064 283.328 367.913 297.023 367.841 283.335 368.28 269.646 368.641 242.264 369.237 214.88 369.661 201.186 369.811 187.491 369.884"/><polygon class="cls-13" points="187.491 371.927 201.179 371.489 214.869 371.129 242.25 370.531 269.635 370.106 283.328 369.956 297.023 369.884 283.335 370.323 269.646 370.683 242.264 371.28 214.88 371.703 201.186 371.854 187.491 371.927"/><polygon class="cls-13" points="187.491 373.969 201.179 373.532 214.869 373.171 242.25 372.573 269.635 372.149 283.328 371.998 297.023 371.927 283.335 372.365 269.646 372.726 242.264 373.322 214.88 373.746 201.186 373.896 187.491 373.969"/><polygon class="cls-13" points="187.491 376.012 201.179 375.574 214.869 375.214 242.25 374.616 269.635 374.191 283.328 374.041 297.023 373.969 283.335 374.408 269.646 374.768 242.264 375.365 214.88 375.788 201.186 375.939 187.491 376.012"/><polygon class="cls-14" points="182.15 301.823 182.221 359.867 304.293 358.338 300.684 221.817 183.221 223.005 182.15 301.823"/><path class="cls-15" d="M229.20536,358.8935l3.7327-8.6573,34.3404-10.0969-18.7659-6.1276-66.2948,23.4101.003,2.4451,22.6994-.2843c7.0696-2.3558,14.2826-4.7644,19.5924-6.5497C225.66146,356.2245,229.20536,358.8935,229.20536,358.8935Z"/><path class="cls-15" d="M300.684,221.8171l-117.46309,1.1883-1.0713,78.8179.0464,37.8022c5.2716-1.0343,11.0773-1.646,14.2953-8.0819v12a14.88851,14.88851,0,0,0,10.9385-13.5641l96.61209,18.8511Z"/><polygon class="cls-16" points="182.221 383.26 182.221 359.867 304.273 357.339 304.314 359.339 184.221 361.826 184.221 381.219 300.663 378.806 300.704 380.806 182.221 383.26"/><polygon class="cls-8" points="316.899 158.006 338.53 173.364 339.948 186.865 346.49 180.61 376.021 201.259 385.345 132.529 316.899 158.006"/><polygon class="cls-17" points="324.052 133.03 392.498 107.554 345.683 148.389 324.052 133.03"/><polygon class="cls-17" points="353.643 155.635 383.174 176.284 392.498 107.554 353.643 155.635"/><polygon class="cls-18" points="345.683 148.389 347.101 161.89 392.498 107.554 345.683 148.389"/><polygon class="cls-19" points="353.643 155.635 347.101 161.89 392.498 107.554 353.643 155.635"/><path class="cls-17" d="M328.964,314.2311c-1.7725,0-3.55569-.0625-5.3038-.1865l.1407-1.9941c1.7011.1201,3.4375.1806,5.1592.1806l.7539-.0049.0234,2Zm5.831-.2246-.1523-1.9941c1.957-.1504,3.9345-.3799,5.8789-.6836l.3086,1.9765C338.83505,313.6159,336.80475,313.8522,334.79495,314.0065Zm-16.1728-.4883c-1.9971-.2763-4.0098-.6386-5.9815-1.0761l.43361-1.9532c1.919.4258,3.87889.7793,5.82329,1.0489Zm27.1816-1.1533-.4316-1.9531c1.9062-.4219,3.8339-.9268,5.7295-1.499l.5781,1.914C349.73735,311.4147,347.75985,311.9313,345.80375,312.3649Zm-38.0664-1.1816c-1.9287-.5645-3.8662-1.2129-5.7588-1.9297l.709-1.8711c1.84371.6992,3.7314,1.332,5.6103,1.8808Zm48.7402-1.9688-.69529-1.875c1.84569-.6846,3.69039-1.4443,5.48049-2.2578l.8281,1.8203C360.25685,307.736,358.36826,308.5143,356.47755,309.2145Zm-59.1738-1.9033c-1.81839-.8223-3.64649-1.7295-5.43459-2.6973l.9512-1.7597c1.7471.9453,3.5322,1.832,5.30759,2.6347Zm69.3301-2.6396-.93559-1.7676c1.74809-.9248,3.47659-1.9199,5.13869-2.958l1.0586,1.6972C370.19335,302.7057,368.42385,303.7243,366.63385,304.6716Zm-79.13769-2.5928c-1.6983-1.0489-3.3975-2.1778-5.0508-3.3535l1.1602-1.6289c1.6171,1.1503,3.2802,2.2548,4.9414,3.2812Zm88.60739-3.2451-1.1602-1.6289c1.6172-1.1534,3.1963-2.3702,4.6924-3.6172l1.2803,1.5371C379.38185,296.403,377.76275,297.651,376.10355,298.8337Zm-97.69629-3.1358c-1.5547-1.2285-3.1162-2.5361-4.6406-3.8877l1.3262-1.4961c1.497,1.3262,3.0293,2.6094,4.5547,3.8135Zm106.294-3.9443-1.38091-1.4473c1.4502-1.3818,2.8291-2.8154,4.0996-4.2597l1.502,1.3203C387.61235,288.8561,386.19245,290.3317,384.70126,291.7536Zm-114.6309-3.3721c-1.4228-1.3779-2.8486-2.8291-4.2373-4.3125l1.4609-1.3672c1.3662,1.461,2.7686,2.8887,4.168,4.2442Zm122.05269-4.9648-1.6054-1.1914a50.412,50.412,0,0,0,3.2314-4.9121l1.7344.9941A52.19382,52.19382,0,0,1,392.12305,283.4167Zm-129.65819-3.0928c-1.3007-1.501-2.5976-3.0654-3.8545-4.6484l1.5664-1.2442c1.2393,1.5615,2.5176,3.1035,3.7999,4.584Zm135.29789-6.6016-1.8438-.7744a31.49611,31.49611,0,0,0,1.2539-3.5459q.29162-1.0209.5518-2.0185l1.9355.5039q-.26655,1.0224-.5634,2.0634A33.59339,33.59339,0,0,1,397.76275,273.7223Zm-142.21389-2.039c-1.1816-1.5928-2.3603-3.2451-3.5039-4.9131l1.6484-1.1309c1.1309,1.6475,2.295,3.2793,3.461,4.8526ZM400.796,262.9587l-1.9609-.3907c.3955-1.9882.7041-3.9531.916-5.8418l1.98821.2246C401.51955,258.8942,401.20315,260.9157,400.796,262.9587Zm-151.53519-.375q-.5991-.9273-1.1924-1.875l1.6954-1.0606q.5859.936,1.1767,1.8516Zm152.83789-10.7041-2-.0528q.019-.70755.01961-1.4023c0-1.5293-.07041-3.0313-.21-4.4649l1.99019-.1933c.1455,1.497.21981,3.0644.21981,4.6582Q402.11826,251.1451,402.09865,251.8796Zm-2.9599-10.7266a31.87411,31.87411,0,0,0-1.7803-5.5244l1.8379-.7891a33.99682,33.99682,0,0,1,1.8935,5.8701Zm-4.0557-9.7656a25.50232,25.50232,0,0,0-3.6846-4.4219l1.3809-1.4473a27.5481,27.5481,0,0,1,3.9736,4.7696Zm-7.4522-7.4033a29.08634,29.08634,0,0,0-5.1455-2.6485l.7383-1.8594a31.13733,31.13733,0,0,1,5.499,2.8321Zm-9.7734-4.1055a41.09635,41.09635,0,0,0-5.7734-.9453l.1875-1.9917a43.304,43.304,0,0,1,6.05271.9917Zm-13.3017-1.1299q-1.76085,0-3.4024-.0557l.0664-1.9985q2.5167.08355,5.3076.0376l.6534-.0078.0097,2-.6289.0078Q365.53765,218.74815,364.55575,218.7487Zm-8.4512-.3721a58.32415,58.32415,0,0,1-6.0342-.8779l.3984-1.96a56.2143,56.2143,0,0,0,5.8252.8467Zm-10.9805-2.1967a27.79705,27.79705,0,0,1-5.63079-2.6041l1.04879-1.7021a25.84141,25.84141,0,0,0,5.2265,2.4126Zm-9.71579-5.8682a20.11974,20.11974,0,0,1-3.59771-5.1416l1.7911-.8887a18.21116,18.21116,0,0,0,3.2441,4.6406Zm-5.41411-9.9981c-.2353-.8642-.4492-1.7871-.6338-2.7431a14.739,14.739,0,0,1-.2509-2.7822c.0009-.23.00481-.4581.0136-.6875l1.9981.0712q-.01033.3135-.0117.6206a12.74544,12.74544,0,0,0,.21481,2.399c.17479.9057.377,1.7798.59959,2.5957Zm1.8467-10.8735-1.9414-.4814a45.57931,45.57931,0,0,1,1.9131-5.8326l1.8574.7403A43.72075,43.72075,0,0,0,331.84085,189.4401Zm3.8311-10.0835-1.7989-.875c.8438-1.7344,1.7989-3.5405,2.8389-5.3682l1.73831.9893C337.43165,175.8927,336.49715,177.6608,335.672,179.3566Zm5.33-9.5122-1.6933-1.0645c1.916-3.0478,3.3262-4.9824,3.3847-5.0634l1.6153,1.1797C344.29495,164.9152,342.878,166.8605,341.002,169.8444Z"/><polygon class="cls-20" points="128.928 356.21 136.077 377.401 248.819 340.544 249.041 323.948 128.928 356.21"/><polygon class="cls-21" points="248.263 324.157 248.053 339.906 135.807 376.601 136.077 377.401 248.819 340.544 249.041 323.948 248.263 324.157"/><path class="cls-22" d="M246.50236,323.3098s-6.2554,8.1702,0,14.2978c-27.4469,8.6809-109.2766,33.766-109.2766,33.766l-8.2979-13.5957Z"/><path class="cls-13" d="M137.63966,370.1697c8.7525-2.9131,17.5373-5.7215,26.3271-8.514l26.4055-8.2596,26.4737-8.0384,13.261-3.9407,13.2921-3.8398-13.1478,4.3083-13.1788,4.2074-26.406,8.2578-26.4742,8.0367C155.35536,365.027,146.51366,367.6507,137.63966,370.1697Z"/><path class="cls-13" d="M136.778,368.6856c8.7525-2.9131,17.5373-5.7215,26.3271-8.514l26.4055-8.2595,26.4737-8.0384,13.261-3.9407,13.2921-3.8399-13.1478,4.3083-13.1788,4.2074-26.406,8.2579-26.4742,8.0367C154.49366,363.543,145.652,366.1667,136.778,368.6856Z"/><path class="cls-13" d="M135.91626,367.2016c8.7525-2.9131,17.5373-5.7215,26.3271-8.514l26.4055-8.2595,26.4737-8.0384,13.261-3.9408,13.2921-3.8398-13.1478,4.3083-13.1788,4.2074-26.406,8.2578-26.4742,8.0367C153.632,362.0589,144.79026,364.6826,135.91626,367.2016Z"/><path class="cls-13" d="M135.05456,365.7175c8.7525-2.9131,17.5373-5.7215,26.3271-8.514l26.4055-8.2595,26.4736-8.0384,13.2611-3.9407,13.2921-3.8399-13.1478,4.3084-13.1788,4.2073-26.4061,8.2579-26.4741,8.0367C152.77026,360.5749,143.92856,363.1986,135.05456,365.7175Z"/><path class="cls-13" d="M134.19286,364.2335c8.7525-2.9131,17.5373-5.7215,26.3271-8.514l26.4055-8.2595,26.4736-8.0384,13.2611-3.9408,13.2921-3.8398-13.1478,4.3083-13.1788,4.2074-26.4061,8.2578-26.4741,8.0367C151.90856,359.0908,143.06686,361.7145,134.19286,364.2335Z"/><path class="cls-13" d="M133.33116,362.7495c8.7525-2.9132,17.5373-5.7215,26.3271-8.5141l26.4055-8.2595,26.4736-8.0384,13.2611-3.9407,13.2921-3.8398-13.1478,4.3083-13.1788,4.2073-26.4061,8.2579-26.4741,8.0367C151.04686,357.6068,142.20516,360.2305,133.33116,362.7495Z"/><path class="cls-13" d="M132.46936,361.2654c8.7526-2.9131,17.5374-5.7215,26.3272-8.514l26.4055-8.2595,26.4736-8.0384,13.2611-3.9407,13.2921-3.8399-13.1478,4.3083-13.1788,4.2074-26.4061,8.2578-26.4741,8.0368C150.18516,356.1227,141.34346,358.7465,132.46936,361.2654Z"/><polygon class="cls-7" points="125.993 361.568 249.041 322.682 191.445 219.27 93.823 244.1 125.993 361.568"/><path class="cls-23" d="M125.99336,361.5683l66.3337-20.9633c-28.7263-3.3407-58.1366-11.4996-80.0253-29.0307Z"/><polygon class="cls-21" points="249.041 322.682 125.673 360.4 125.993 361.568 249.041 323.948 249.041 322.682"/><path class="cls-24" d="M223.85726,338.4867s2.7461,4.5887,3.6078,13.3282,5.4499,12.8566,5.4499,12.8566l1.7234-5.7447,5.7523,1.6276s-4.5578-6.7904-4.8906-11.7076c-.3327-4.9171-3.4468-13.0458-3.4468-13.0458Z"/><polygon class="cls-8" points="122.515 236.803 100.468 268.363 108.596 298.044 220.691 331.641 245.467 341.64 248.819 340.544 249.008 325.167 122.515 236.803"/><polygon class="cls-24" points="97.676 281.536 201.474 323.635 314.378 346.12 339.733 229.868 237.354 215.516 155.085 178.147 97.676 281.536"/><polygon class="cls-25" points="337.058 229.493 312.846 340.503 199.942 318.018 99.94 277.458 97.676 281.536 201.474 323.635 314.378 346.12 339.733 229.868 337.058 229.493"/><path class="cls-26" d="M104.37836,276.4696l55.6199-96.0912,11.5928-5.462s9.1915,5.617,26.4256,7.9149c17.234,2.2979,37.1489,13.0213,40.9787,27.9575,22.5957-9.9575,39.8298-8.8085,53.617,0,13.78729,8.8085,28.72339,12.351,34.08509,11.2021l7.6596,7.502-22.7872,108.4448s-19.72339-9.1915-36.95749-15.7021c-17.234-6.5107-51.1915-16.4554-63.0638-16.0851-11.8724.3702-18.3192-12.2554-18.3192-12.2554s-35.4255-3.8297-50.3617-9.9574C127.93156,277.81,104.37836,276.4696,104.37836,276.4696Z"/><path class="cls-27" d="M113.506,266.0654s16.8511,13.5319,39.3192,18.6383c22.4681,5.1063,51.5745,18,51.5745,18l34.5957-91.915c-3.8298-14.9361-23.7447-25.6595-40.9787-27.9574s-26.4256-7.9149-26.4256-7.9149l-11.4098,5.3756Z"/><path class="cls-12" d="M201.01586,285.3453c-10.6123-17.372-35.6338-19.6328-45.8989-19.7988-15.853-.2549-20.0566-6.794-20.228-7.0723l.6382-.3935c.04.0644,4.2094,6.4677,19.6015,6.7158,10.3897.168,35.7207,2.4687,46.5269,20.1582Z"/><path class="cls-12" d="M203.84546,278.4781c-10.6958-17.8447-37.498-19.792-45.458-19.9638-15.5942-.3379-19.8398-6.6407-20.0127-6.9092l.6294-.4072c.041.0625,4.2529,6.2392,19.3999,6.5664,8.0567.1738,35.1914,2.1533,46.085,20.3291Z"/><path class="cls-12" d="M206.67606,271.6119c-10.478-17.8252-37.1065-19.915-45.0181-20.1308-15.3349-.419-19.622-6.4864-19.7973-6.7442l.6201-.4219c.0415.0596,4.2969,6.0098,19.1977,6.4161,8.0093.2187,34.9707,2.3427,45.6441,20.5Z"/><path class="cls-12" d="M209.50616,264.7438c-10.2583-17.8018-36.7134-20.0352-44.5772-20.2959-15.0761-.5-19.4043-6.333-19.581-6.5811l.6098-.4365c.0415.0576,4.3394,5.7822,18.9956,6.2676,7.962.2636,34.751,2.5341,45.2022,20.6709Z"/><path class="cls-12" d="M212.33616,257.8766c-7.9726-14.1241-28.0273-19.8301-44.1367-20.461-14.8164-.582-19.186-6.1797-19.3647-6.417l.5991-.4511c.042.0547,4.3833,5.5527,18.7949,6.1181,7.9156.3106,34.5362,2.7295,44.7608,20.8418Z"/><path class="cls-12" d="M215.16626,251.0094c-7.7925-14.0986-27.6816-19.8994-43.6967-20.627-14.5567-.6621-18.9664-6.0244-19.147-6.2529l.5874-.4658c.0425.0527,4.4262,5.3252,18.5937,5.9687,16.2173.7373,36.3765,6.6446,44.3189,21.0137Z"/><path class="cls-12" d="M217.99586,244.1412c-7.6089-14.0683-27.3335-19.9648-43.2558-20.7929-14.2964-.7413-18.7471-5.8682-18.9297-6.086l.5742-.4824c.0434.0508,4.4712,5.0967,18.3945,5.8203,16.1255.8379,36.1201,6.8428,43.877,21.1836Z"/><path class="cls-12" d="M220.82646,237.274c-7.4243-14.0371-26.9859-20.0293-42.8164-20.958-14.0366-.8232-18.5269-5.7138-18.7114-5.9219l.5605-.499c.0435.0489,4.5146,4.8692,18.1948,5.6729,16.0347.9394,35.8657,7.0429,43.4356,21.3545Z"/><path class="cls-12" d="M223.65656,230.4059c-7.2437-14.0127-27.355-20.1368-42.376-21.1231-13.7769-.9043-18.3062-5.5595-18.4922-5.7578l.5454-.5146c.044.0468,4.5586,4.6416,17.9956,5.5244,15.2163.999,35.606,7.2363,42.9932,21.5273Z"/><path class="cls-12" d="M226.48616,223.5377c-7.0538-13.9707-26.9991-20.1992-41.9361-21.2881-13.5151-.9853-18.0845-5.4043-18.2724-5.5918l.5293-.5312c.0449.0439,4.6035,4.4131,17.7978,5.375,15.1318,1.1025,35.356,7.4472,42.5513,21.6982Z"/><path class="cls-12" d="M229.31716,216.6705c-6.8613-13.9238-26.6421-20.2588-41.4971-21.4531-13.2548-1.0664-17.8623-5.25-18.0522-5.4277l.5122-.5479c.0449.042,4.6479,4.1856,17.6006,5.2275,15.0503,1.21,35.1094,7.6641,42.1084,21.8692Z"/><path class="cls-12" d="M232.14726,209.8024c-6.666-13.8721-26.2837-20.3155-41.0571-21.6182-12.9937-1.1475-17.6397-5.0947-17.8311-5.2617l.4932-.5655c.0459.0401,4.6928,3.958,17.4038,5.0791,14.9697,1.3204,34.8647,7.8858,41.667,22.042Z"/><path class="cls-12" d="M291.81616,309.943c-12.1533,0-21.8008-6.835-31.1504-13.46-7.1533-5.0674-13.9091-9.8535-21.1523-10.9619-15.2441-2.3389-22.0093,4.542-22.0762,4.6113l-.5434-.5166c.2807-.2968,7.0693-7.2324,22.7329-4.8369,7.4189,1.1358,14.2451,5.9727,21.4726,11.0928,9.8858,7.0039,20.1133,14.249,33.2071,13.2236l.0586.7481Q293.07161,309.9445,291.81616,309.943Z"/><path class="cls-12" d="M294.23616,302.5592c-11.9346.001-21.501-6.6289-30.7706-13.0518-7.0595-4.8916-13.7275-9.5117-20.8212-10.625-15.0831-2.3769-22.4302,4.5069-22.5025,4.5762l-.5215-.5391c.3057-.2959,7.6607-7.2138,23.1411-4.7773,7.2627,1.1387,13.9991,5.8066,21.1319,10.749,9.6972,6.7197,19.7109,13.6641,32.3857,12.8526l.0488.748Q295.27036,302.56065,294.23616,302.5592Z"/><path class="cls-12" d="M296.67265,295.1803c-11.71779.001-21.208-6.4248-30.40139-12.6475-6.9678-4.7158-13.5498-9.1709-20.4941-10.289-14.9571-2.4239-22.8521,4.4707-22.9302,4.54l-.5-.5586c.0801-.0723,8.2563-7.1982,23.5493-4.7217,7.1084,1.1446,13.7568,5.6446,20.7949,10.4082,9.5098,6.4375,19.3145,13.1133,31.56159,12.4785l.0371.75C297.74685,295.1676,297.20685,295.1803,296.67265,295.1803Z"/><path class="cls-12" d="M299.13555,287.8082c-11.50389,0-20.92779-6.2226-30.05179-12.2471-6.8789-4.542-13.376-8.833-20.1748-9.955-14.7607-2.4639-23.272,4.4316-23.3564,4.5019l-.48-.5762c.0869-.0722,8.8393-7.1933,23.9595-4.666,6.955,1.1485,13.5175,5.4815,20.4648,10.0694,9.3193,6.1533,18.9297,12.5273,30.72949,12.1035l.0254.75C299.87865,287.8014,299.50465,287.8082,299.13555,287.8082Z"/><path class="cls-12" d="M301.62375,280.442c-11.29189,0-20.65619-6.0234-29.71969-11.8516-6.7929-4.3681-13.209-8.4951-19.8633-9.623-14.6005-2.5117-23.6923,4.3935-23.7822,4.4639l-.4609-.5918c.0927-.0713,9.4345-7.1787,24.3691-4.6114,6.8047,1.1543,13.2842,5.3203,20.1436,9.7315,9.125,5.8691,18.5713,11.9472,29.88959,11.7265l.0137.75C302.01735,280.44,301.81915,280.442,301.62375,280.442Z"/><path class="cls-12" d="M304.14626,273.0846c-11.083,0-20.4014-5.8262-29.4131-11.4619-6.7099-4.1953-13.0488-8.1592-19.5605-9.295-14.4375-2.5459-24.1123,4.3555-24.208,4.4248l-.4424-.6054c.0986-.0723,10.0176-7.169,24.7803-4.5576,6.6552,1.1601,13.0546,5.1621,19.8281,9.3974,8.9219,5.5791,18.1484,11.3477,29.0156,11.3477h.02829v.75Z"/><path class="cls-12" d="M306.13555,265.732c-10.63189-.1923-19.74609-5.7236-28.55959-11.0722-6.6328-4.0254-12.8975-7.8272-19.2715-8.9698a35.55645,35.55645,0,0,0-24.6318,4.3838l-.4258-.6172a36.325,36.325,0,0,1,25.1914-4.5048c6.5098,1.167,12.833,5.0048,19.5264,9.0673,8.7295,5.2969,17.7549,10.7745,28.18449,10.9629Z"/><path class="cls-12" d="M308.09545,258.3805c-10.1631-.3936-19.05859-5.6221-27.66109-10.6787-6.5606-3.8565-12.7578-7.4991-18.999-8.6504a37.33923,37.33923,0,0,0-25.0557,4.3437l-.4082-.6289a38.08306,38.08306,0,0,1,25.6016-4.4521c6.3701,1.1758,12.622,4.8506,19.2412,8.7412,8.5224,5.0097,17.33489,10.1894,27.31049,10.5752Z"/><path class="cls-12" d="M310.05545,251.027c-9.6904-.5909-18.35939-5.5147-26.74319-10.2764-6.4961-3.6904-12.6318-7.1758-18.7451-8.3379-13.9375-2.6787-25.3652,4.2334-25.4785,4.3027l-.3945-.6386c.1162-.0713,11.7832-7.1358,26.0136-4.4004,6.2344,1.1855,12.4229,4.7002,18.9746,8.4219,8.3096,4.7197,16.90239,9.5996,26.418,10.1806Z"/><path class="cls-12" d="M312.01345,243.6754c-9.207-.7861-17.63969-5.4033-25.79489-9.8682-6.4414-3.5273-12.5264-6.8584-18.5196-8.0332-13.7753-2.7236-25.7832,4.1905-25.9033,4.2608l-.3789-.6465c.1211-.0723,12.375-7.127,26.4268-4.3506,6.1064,1.1973,12.2412,4.5557,18.7353,8.1123,8.0869,4.4277,16.44919,9.0059,25.499,9.7774Z"/><path class="cls-12" d="M313.97145,236.3219c-8.7129-.9746-16.8945-5.2803-24.80759-9.4444-6.4024-3.3701-12.4502-6.5527-18.334-7.7431-13.6016-2.7647-26.1982,4.1494-26.3252,4.2197l-.3652-.6543c.1269-.0723,12.958-7.1269,26.8388-4.2998,5.9893,1.2109,12.084,4.418,18.5352,7.8135,7.85059,4.1318,15.96869,8.4043,24.542,9.3623Z"/><path class="cls-12" d="M315.92845,228.9684c-8.2021-1.1563-16.1113-5.1446-23.76069-9.001-6.3848-3.2197-12.415-6.2608-18.207-7.4707-13.4287-2.8096-26.6143,4.1064-26.7461,4.1767l-.3535-.6621c.1347-.0713,13.5517-7.1113,27.2539-4.249,5.8877,1.2305,11.9609,4.293,18.3906,7.5352,7.59469,3.8291,15.44719,7.789,23.52829,8.9287Z"/><path class="cls-28" d="M193.52316,313.5679s-4.1874-17.7579-19.37-19.891c-15.0105-2.109-55.4131-7.2498-69.7748-17.2073,11.6808-7.4681,20.6808-14.3362,20.6808-14.3362s13.4043,10.6979,39.4468,11.0809c26.0426.383,36.4468,23.7447,39.8937,29.4894,15.7021-9.1915,30.1914-16.2766,44.7446-3.6383s44.2341,22.4042,55.149,16.851c6.51059,16.0851,7.27659,22.0213,7.27659,22.0213s-35.42559-6.3191-55.91489-13.2128c-20.4894-6.8936-23.4828-23.2664-43.7807-6.7983a31.02254,31.02254,0,0,0-4.2337-3.0705c-3.633-2.5079-5.7397-4.4774-10.8621-2.6582Z"/><path class="cls-13" d="M207.64056,314.8561a36.63763,36.63763,0,0,1,11.0094-8.0959,19.42461,19.42461,0,0,1,6.6615-1.8229,17.70761,17.70761,0,0,1,6.8642.916,53.75705,53.75705,0,0,1,12.4859,5.7872c3.9151,2.3988,7.613,5.0961,11.3961,7.6249,3.6788,2.6317,7.9418,4.2742,12.2111,5.8167,4.2878,1.5123,8.6782,2.7346,13.0888,3.8657q6.62445,1.6695,13.3742,2.8042a117.8348,117.8348,0,0,0,13.58279,1.59,129.966,129.966,0,0,1-27.13769-3.6465,131.78628,131.78628,0,0,1-13.2074-3.7539c-1.0846-.3708-2.1664-.7501-3.2328-1.177-1.0769-.3964-2.1333-.8512-3.1867-1.3153-1.0586-.4489-2.084-.9889-3.1095-1.5237l-1.5046-.8858-1.4358-.9457c-3.7891-2.5698-7.4575-5.2821-11.3149-7.6801a56.54935,56.54935,0,0,0-12.2384-5.83,16.977,16.977,0,0,0-6.5898-1.0193,19.04826,19.04826,0,0,0-6.5115,1.6419A37.71512,37.71512,0,0,0,207.64056,314.8561Z"/><path class="cls-13" d="M207.64056,310.9377a40.34383,40.34383,0,0,1,10.48-8.6585,26.04464,26.04464,0,0,1,6.4011-2.4787,17.97784,17.97784,0,0,1,6.9015-.0929,40.52467,40.52467,0,0,1,12.7592,4.9434,134.09282,134.09282,0,0,1,11.2595,7.7238c3.6776,2.655,7.2302,5.484,11.2741,7.4494a71.14461,71.14461,0,0,0,12.6464,4.7311,80.98785,80.98785,0,0,0,13.3082,2.507,50.59776,50.59776,0,0,0,13.53759-.231,48.45608,48.45608,0,0,1-13.58049.7193,80.98437,80.98437,0,0,1-13.4626-2.2519,66.33674,66.33674,0,0,1-12.856-4.6603c-1.022-.5137-2.026-1.069-3.0242-1.631-.9599-.6231-1.9688-1.2002-2.8847-1.8665-1.8766-1.287-3.7137-2.6256-5.55-3.9614a133.352,133.352,0,0,0-11.127-7.7447,41.712,41.712,0,0,0-12.4576-4.9779,17.27576,17.27576,0,0,0-6.6158-.0406,25.83138,25.83138,0,0,0-6.2995,2.2927A41.7348,41.7348,0,0,0,207.64056,310.9377Z"/><path class="cls-13" d="M205.80386,306.1505a48.12467,48.12467,0,0,1,5.2496-4.1592,48.97579,48.97579,0,0,1,5.7487-3.4671,32.71418,32.71418,0,0,1,12.8821-3.7741,26.15331,26.15331,0,0,1,13.0633,3.1845,74.38671,74.38671,0,0,1,11.2084,7.4377c3.5338,2.7351,7.0054,5.5254,10.7038,7.9747a48.02218,48.02218,0,0,0,11.9066,5.763,64.87882,64.87882,0,0,0,12.99,2.8398,57.8178,57.8178,0,0,0,6.6548.4073,25.74432,25.74432,0,0,0,6.614-.7598,24.13837,24.13837,0,0,1-6.60829,1.0248,58.19423,58.19423,0,0,1-6.7103-.1846,65.09344,65.09344,0,0,1-13.1756-2.5952,46.17447,46.17447,0,0,1-12.1699-5.7339c-3.762-2.4564-7.2762-5.2391-10.8134-7.9439a73.5197,73.5197,0,0,0-11.0144-7.4215,26.15542,26.15542,0,0,0-12.6203-3.2277,32.23552,32.23552,0,0,0-12.6947,3.4457A54.47977,54.47977,0,0,0,205.80386,306.1505Z"/><path class="cls-13" d="M124.35706,266.7037a32.4444,32.4444,0,0,0,9.8494,5.1644,47.83221,47.83221,0,0,0,10.8632,2.3719c7.4035.6404,14.9332.5335,22.3857,1.783a38.16867,38.16867,0,0,1,10.7437,3.5406,43.60264,43.60264,0,0,1,9.2514,6.4721,61.954,61.954,0,0,1,13.8853,17.5616,62.38325,62.38325,0,0,0-6.5096-9.0901,67.46848,67.46848,0,0,0-7.8791-7.8899,46.30087,46.30087,0,0,0-9.1588-6.2415,37.33185,37.33185,0,0,0-10.509-3.3697c-7.3106-1.3127-14.823-1.1958-22.2972-2.0054a48.04588,48.04588,0,0,1-10.942-2.6745,37.40288,37.40288,0,0,1-5.1005-2.3855A24.10067,24.10067,0,0,1,124.35706,266.7037Z"/><path class="cls-13" d="M119.37836,268.3632a48.22261,48.22261,0,0,0,21.6798,9.627c3.921.655,7.9372.5365,11.9642.7553,4.0175.1829,8.039.4531,12.0431.9759a55.09735,55.09735,0,0,1,11.7996,2.7866,30.91464,30.91464,0,0,1,5.486,2.6649,31.87434,31.87434,0,0,1,4.8027,3.7414,65.30951,65.30951,0,0,1,7.9893,9.0722c1.1808,1.6315,2.3069,3.301,3.3607,5.0146a40.88606,40.88606,0,0,1,2.832,5.3196,63.01512,63.01512,0,0,0-6.5837-10.0386,65.19889,65.19889,0,0,0-8.1138-8.7968,35.61655,35.61655,0,0,0-4.7409-3.5764,30.0326,30.0326,0,0,0-5.3489-2.5476,54.396,54.396,0,0,0-11.617-2.6501c-3.9556-.5468-7.9518-.8463-11.9532-1.0584q-3.00225-.1527-6.0093-.2571l-3.0324-.2131c-1.0055-.1253-2.0058-.293-3.0076-.4377A45.48445,45.48445,0,0,1,119.37836,268.3632Z"/><path class="cls-13" d="M115.29326,272.7037a58.49878,58.49878,0,0,0,10.5912,5.5799,53.31,53.31,0,0,0,11.4599,3.2774c7.8818,1.1543,15.9165,1.0149,23.9352,1.5213a57.47175,57.47175,0,0,1,11.9455,1.8954,30.24252,30.24252,0,0,1,10.6514,5.7325,57.83646,57.83646,0,0,1,8.5528,8.5065,56.9999,56.9999,0,0,1,3.5383,4.8796,24.20689,24.20689,0,0,1,2.6874,5.3733,37.84935,37.84935,0,0,0-6.601-9.9376,57.6328,57.6328,0,0,0-8.6495-8.2145,30.79632,30.79632,0,0,0-10.4337-5.4659,56.80857,56.80857,0,0,0-11.7605-1.7728c-7.9565-.5887-16.0213-.4293-23.996-1.7632A54.04133,54.04133,0,0,1,115.29326,272.7037Z"/><path class="cls-13" d="M109.42086,275.3845a100.59831,100.59831,0,0,0,11.1343,4.6573,116.18711,116.18711,0,0,0,11.5365,3.4849c1.9451.5018,3.9164.8852,5.8761,1.3175,1.9772.3435,3.9457.7389,5.9384.9787,3.9674.5845,7.979.8072,12.0048,1.0987,4.0174.3175,8.0493.6205,12.0582,1.2597a36.06049,36.06049,0,0,1,11.6242,3.5994,33.69214,33.69214,0,0,1,9.3433,7.7522,78.124,78.124,0,0,1,6.9098,9.9367,86.27909,86.27909,0,0,0-7.2773-9.6123,33.19965,33.19965,0,0,0-9.3321-7.3949,37.25282,37.25282,0,0,0-11.4084-3.3819c-3.9582-.6021-7.9759-.8715-11.9925-1.1629A115.90581,115.90581,0,0,1,131.9,284.268,101.01365,101.01365,0,0,1,109.42086,275.3845Z"/><polygon class="cls-12" points="125.059 262.133 171.591 174.916 159.998 180.378 104.378 276.47 125.059 262.133"/><polygon class="cls-12" points="304.293 315.916 326.697 221.991 334.357 229.493 311.57 337.938 304.293 315.916"/><path class="cls-29" d="M241.41946,209.7558s-30.7645,82.8932-33.4454,90.8886c-2.6808,7.9954-3.2553,27.9103-5.1702,33.4635s-6.5106,12.0124-6.5106,12.0124l-1.149-6.0762-5.7446,3.4468a95.42418,95.42418,0,0,0,7.2765-16.8511c3.0639-9.5744,2.7867-19.7973,4.9359-28.8561,2.1493-9.0588,35.0743-87.9331,36.548-89.5704C239.63366,206.576,241.41946,209.7558,241.41946,209.7558Z"/></g></g></svg>