<?xml version="1.0" standalone="no"?><svg xmlns="http://www.w3.org/2000/svg" viewBox="0 0 1440 320"><path fill="#0099ff" fill-opacity="1" d="M0,288L21.8,240C43.6,192,87,96,131,74.7C174.5,53,218,107,262,160C305.5,213,349,267,393,272C436.4,277,480,235,524,224C567.3,213,611,235,655,208C698.2,181,742,107,785,69.3C829.1,32,873,32,916,69.3C960,107,1004,181,1047,186.7C1090.9,192,1135,128,1178,128C1221.8,128,1265,192,1309,229.3C1352.7,267,1396,277,1418,282.7L1440,288L1440,320L1418.2,320C1396.4,320,1353,320,1309,320C1265.5,320,1222,320,1178,320C1134.5,320,1091,320,1047,320C1003.6,320,960,320,916,320C872.7,320,829,320,785,320C741.8,320,698,320,655,320C610.9,320,567,320,524,320C480,320,436,320,393,320C349.1,320,305,320,262,320C218.2,320,175,320,131,320C87.3,320,44,320,22,320L0,320Z"></path></svg>